# xmcd
#
# Track frame offsets:
#  150
#  14460
#  31667
#  52185
#  64182
#
# Disc length: 1046 seconds
#
# Revision: 2
# Processed by: cddbd v1.5.1PL2 Copyright (c) Steve Scherf et al.
# Submitted via: Collectorz.com_Music_Collector 6.10
#
DISCID=3c041405
DTITLE=Hvid Sjokolade - Jo Hårdere De Kommer
DYEAR=1997
DGENRE=
TTITLE0=Jo Hårdere De Kommer
TTITLE1=Jo Hårdere De Kommer (Onkel Arnes God Damned Remix)
TTITLE2=Jo Hårdere De Kommer (Supa' Flyas Remix)
TTITLE3=Brændt Kærlighed (Vammel Version)
TTITLE4=Jo Hårdere De Kommer (Originalers Instrumental)
EXTD=
EXTT0=
EXTT1=
EXTT2=
EXTT3=
EXTT4=
PLAYORDER=
